<svg xmlns="http://www.w3.org/2000/svg" viewBox="0 0 494.21 476.71"><defs><style>.cls-1{fill:#00c3c3;}.cls-2{fill:#fee274;}.cls-3{fill:#b30166;}.cls-4{fill:#00b700;}.cls-5{fill:#0072bf;}.cls-6{fill:#fece00;}.cls-7{fill:#b4548c;}.cls-8{fill:#0094d3;}.cls-9{fill:#fefefe;}.cls-10{fill:#88cc41;}.cls-11{fill:#fdfefe;}.cls-12{fill:#67c952;}.cls-13{fill:#0196d4;}.cls-14{fill:#0479c3;}.cls-15{fill:#01c3c3;}.cls-16{fill:#02c4c4;}.cls-17{fill:#04c4c4;}</style></defs><g id="Capa_2" data-name="Capa 2"><g id="Capa_1-2" data-name="Capa 1"><path class="cls-1" d="M13.13,286.51l-.9-2.86c1.74-29.55,9.29-57.71,20.89-84.81a279.21,279.21,0,0,1,51.81-79.47c2.36-2.57,4.26-5.57,7-7.81,1.29-1,2.4-3,4.62-1.65,1,1.73.6,3.53.34,5.35-.59,4.12-1.61,8.17-2.15,12.3-2,15.14,8.89,26,24,24.2,6.12-.74,12.21-1.63,18.26-2.79,2.28-.43,4.92-1.06,5.93,2,1,2.87.53,5.63-2.14,7.59-2,1.51-4.49,2.15-6.79,3.11-15.4,6.44-29.62,14.55-39.52,28.56-4.39,6.21-7.56,12.85-7,20.86.67,9.77,6.16,17,15.53,19.8,21.69,6.42,43.09-2.24,54.33-21.88,6.29-11,9.79-22.81,11.73-35.31,4.69-30.11,10.27-60.07,15.54-90.08.84-4.75,1.55-9.53,2.47-14.27.6-3.15-.65-4.29-3.66-4.28-6.83,0-13.66.08-20.48,0-3.52-.05-4.49,2-5,4.91-2.51,13.76-5,27.53-7.51,41.28-1,5.56-1.6,11.24-3.92,16.48-2.66,6-7,8.55-13.44,8.3-4.31-.17-6.76-2.31-7.78-6.37a16,16,0,0,1-.31-6.45c2.44-14.79,5.51-29.46,8.27-44.19a7.27,7.27,0,0,1,1-2.28c7.68-7.84,17.39-12.82,26.69-18.23a347.25,347.25,0,0,1,104-39.82c3.59-.75,7.22-1.2,10.81-1.89a7.39,7.39,0,0,1,2.3.11A307.35,307.35,0,0,1,385.38,77a254.87,254.87,0,0,1,61.36,78.66,227.26,227.26,0,0,1,20.85,61.83,5.53,5.53,0,0,1,0,1.52c-3.28,19.08-8.15,37.73-15.64,55.63a252.46,252.46,0,0,1-28,50.53,57.86,57.86,0,0,0-6,9.73c-3,.95-5.92-.16-8.9,0-10.26.59-17.56,6.23-19.42,14.91-.94,4.37,1.17,8.14,1.85,12.19a48.73,48.73,0,0,1-14.94,14.87c-2.19-.86-4.23-.3-6.25.62-3.45,1.59-7.1,1.58-10.77,1.26a7.9,7.9,0,0,1-6.53-4.78c-1.4-2.75-.88-4.8,2.43-5.63,4.36-1.09,8.91-1.28,13.14-2.86,7.54-2.81,13.58-7,14.59-15.9.78-6.9-2.57-12.09-9.25-13.88-10.93-2.94-23.7,1.78-30.72,11.72a36.74,36.74,0,0,0-6.55,26.48c1,8,5.41,13.33,13.43,15.51,2.36.65,5,.4,7.09,2.06.35,2.31-1.48,3.17-2.91,4.21-40.12,29.47-84.37,49-133.93,55.91a187.26,187.26,0,0,1-29.85,1.29,11.67,11.67,0,0,1-3.06-.45c-33.73-13.23-65-30.76-93-53.87C59.89,370,32.23,336.14,15.25,294.24a41.86,41.86,0,0,0-1.73-4.48C12.91,288.73,13.85,287.53,13.13,286.51Z"/><path class="cls-2" d="M466.73,217.28c-3.67-13.89-6.94-27.87-12.29-41.28-21.2-53.1-57.32-93.59-105-124.27A309.16,309.16,0,0,0,280,18.78a24.07,24.07,0,0,1-2.22-1c.1-2,1.77-2.32,3.19-2.49,32.69-4,65.07-4.15,96.34,8.33l8.7,4c26.71,15.39,45.24,38.17,59.53,65A205.39,205.39,0,0,1,469,168.54a181.58,181.58,0,0,1-.52,44.26C468.21,214.39,468.4,216.21,466.73,217.28Z"/><path class="cls-3" d="M11.36,281.46a233.74,233.74,0,0,1-8.49-32.83,8.47,8.47,0,0,1-.69-2.53c.06-1.08-.38-2.41-.32-3.87-5.35-42.1.68-82.49,20.32-120.14C55.38,58.48,108,21.14,178.77,9.55,191.42,7.48,204.19,6.43,217,7.7c-.5,2.9-3.19,2.57-5,3.08A302.67,302.67,0,0,0,153.7,34.23a281.94,281.94,0,0,0-42,27c-1.32,1-2.67,2-4.07,2.9a9.73,9.73,0,0,0-3.41,2.59c-4.09,4.4-8.82,8.1-13.21,12.17-42.35,39.29-69,87-77.34,144.43A208.8,208.8,0,0,0,12.88,275C13.11,277.14,14.29,279.88,11.36,281.46Z"/><path class="cls-3" d="M11.8,281.59a233.61,233.61,0,0,1-8.49-32.82c-.65-.8-.5-1.48-.7-2.53.07-1.08-.38-2.41-.31-3.88-5.36-42.1.67-82.49,20.32-120.13C55.82,58.61,108.43,21.28,179.21,9.68c12.65-2.07,25.42-3.11,38.26-1.85-.5,2.91-3.18,2.57-5,3.09a302.37,302.37,0,0,0-58.31,23.44,281.81,281.81,0,0,0-42,27q-2,1.53-4.06,2.89a9.76,9.76,0,0,0-3.41,2.6c-4.1,4.39-8.82,8.1-13.21,12.17-42.36,39.29-69,87-77.34,144.42a208.8,208.8,0,0,0-.82,51.68C13.55,277.28,14.73,280,11.8,281.59Z"/><path class="cls-4" d="M13.13,286.51l1.06,2.91c.72,1.66.67,3.52,1.43,5.16,5.13,22.49,12.64,44.08,23.61,64.46,15.2,28.24,35.07,52.1,63.1,68.42a170.44,170.44,0,0,0,65.84,21.86c6.41.79,13,.14,19.24,2.22l2.27.12c15.84,4.44,31.4,9.94,47.7,12.63,1.1.18,2.38.37,2.56,1.9-28.37,8.16-57.17,12.7-86.74,9.47C94,469.18,52.38,438.21,28.26,384c-13.45-30.22-17.38-62.24-15.64-95.07A16.05,16.05,0,0,1,13.13,286.51Z"/><path class="cls-5" d="M467,296.6c-2.59,19.94-8.65,38.9-17.12,57-22.84,48.88-58.62,84.3-109.59,103.29-31.52,11.74-64.08,14.31-97.28,9.37.26-3.29,3.16-3.05,5.19-3.64,21.19-6.11,41.46-14.6,61.16-24.33A392.93,392.93,0,0,0,383.21,391c1.55-1.26,3-2.65,5.05-3.12,3.68,0,7.15,1.3,10.73,1.91,5.6,1,10.92.09,16.17-1.58,10.35-3.3,17.24-18.06,4.63-28.07-1.05-2,0-3.55,1.35-4.82,3.66-3.56,6.45-7.89,10.15-11.41a315.76,315.76,0,0,0,31.37-45.31c.81-1.44,1.53-3.15,3.09-3.77C467.6,294.07,467.66,295.23,467,296.6Z"/><path class="cls-6" d="M466.73,217.28c.71-9.4,2.11-18.8,2-28.19-.47-44.17-13.71-84.36-39.41-120.23A152.71,152.71,0,0,0,390.1,31.08c-1.45-1-3.43-1.49-4.11-3.44,37.8,14.51,66.88,39.29,86.71,74.57,14.37,25.57,21,53.16,21.48,82.6.56,35.41-7.9,68.48-23.15,100.1-.57,1.18-1.31,2.28-2,3.42-1.59-1.4-1.62-3.29-1.31-5.09,1.11-6.59,1-13.28,1.43-19.91.78-11.64-.95-23.24-2.16-34.82a44.41,44.41,0,0,1-.23-9.91C466.76,218.16,466.74,217.72,466.73,217.28Z"/><path class="cls-7" d="M11.36,281.46c1.72-6.42.15-13-.64-19.13-1.32-10.26-.06-20.29.68-30.28a201.94,201.94,0,0,1,10.41-49.91,246,246,0,0,1,45-79.85A292.88,292.88,0,0,1,104,65.62c1.71,1.72,1,3.78.61,5.67-2,11-3.74,22-5.67,33-.37,2.07-.48,4.4-2.82,5.52a276,276,0,0,0-59.89,85.13,253.35,253.35,0,0,0-22.33,83.24c-.16,1.89,0,4-1.63,5.47Z"/><path class="cls-7" d="M107,63.48c19.74-16.55,41.92-29.08,65.23-39.76C186.73,17.09,202,12.64,217,7.7l4.21-.32c17.84-1.84,34.71,3,51.6,7.55,1.31.36,3.06.59,3.09,2.63-13.08,2.93-26.21,5.62-39.07,9.48A350.36,350.36,0,0,0,135.25,76.31c-1.84-1.91-.9-4.13-.44-6.13.88-3.87-.73-5.11-4.37-5.06-5.8.07-11.61.08-17.42,0C110.92,65.06,108.64,65.42,107,63.48Z"/><path class="cls-8" d="M388,388.58a384.32,384.32,0,0,1-80,51.83c-20,9.74-40.49,18.43-62.11,24.08a4.35,4.35,0,0,0-2.83,1.8l-3.1-.1c-15.74-3.09-31.35-6.64-46.33-12.52a10.79,10.79,0,0,1-3.93-2c29.22.71,57.3-5,84.72-14.75a293.76,293.76,0,0,0,76.26-40.48c2.12-1.56,4.69-2.52,6.32-4.74,2.2-2.16,5.17-1.9,7.86-2.44a67.06,67.06,0,0,0,6.68-1.78c3.89-1.21,6.76-2.94,4.81-7.78a3,3,0,0,1,.63-3.23,113.26,113.26,0,0,1,14.17-14c5.64,3,12.29,4.12,17.11,8.76a30.84,30.84,0,0,1-7.31,6.88c-2.77.78-5.15-.52-7.51-1.6s-4.46-1.75-5.67,1.28c-1.13,2.82-5.4,5.47-.69,8.78C387.71,387.06,388.4,387.58,388,388.58Z"/><path class="cls-8" d="M466.78,218.6a202.3,202.3,0,0,1,2.34,64.25,45.47,45.47,0,0,0-.07,5.48c-.67,2.75-1.35,5.51-2,8.27-2.59-2-2.52,1.23-2.87,1.89-4.48,8.68-10.12,16.63-15.6,24.66A171.55,171.55,0,0,1,432,344.57a3.48,3.48,0,0,1-1-.95c-1.69-3.38-4.93-4.72-8.08-6.22-1.74-.83-3.92-1-4.93-3-1.16-1.48-.51-2.53.51-3.9a253.34,253.34,0,0,0,40.13-78.28A264.77,264.77,0,0,0,466,220.36,8.07,8.07,0,0,1,466.78,218.6Z"/><path class="cls-6" d="M275.94,17.56c-13.06-4.79-26.67-7.08-40.38-8.85-4.75-.62-9.54-.89-14.31-1.33C273.19-4.44,324-3.49,372.73,20.78c1.6.79,3.47,1.24,4.56,2.87-9.46-1.56-18.51-4.81-28-6.39-18.79-3.14-37.6-3.37-56.51-1.73-5.07.43-10.2.33-15,2.28Z"/><path class="cls-9" d="M107,63.48c8.63.06,17.25.26,25.87.1,3.53-.07,4.87.75,3.81,4.45a75.79,75.79,0,0,0-1.45,8.28c-3,15.64-6.17,31.26-9,46.94-.76,4.25-.71,9,4.06,11.28,4.56,2.16,10.71-.49,13.83-5.22,3.63-5.51,3.6-12,4.8-18.11,2.91-14.82,5.51-29.7,8.07-44.59.4-2.33,1.27-3,3.52-3,8.49.1,17,.17,25.47,0,3-.07,3.31,1.18,2.89,3.56-3.8,21.4-7.63,42.8-11.35,64.22-2.92,16.84-5.31,33.78-8.65,50.54-3.37,16.93-9.89,32.54-24.23,43.34-13.71,10.33-29.16,11.45-44.88,5.82-11.26-4-16.52-16.58-13-28.48,3.85-12.9,12.61-22,23.2-29.65a103.88,103.88,0,0,1,27.84-14.16c3.34-1.12,4.24-2.9,4.36-6.14.11-2.84-.71-3.59-3.32-2.9A141.32,141.32,0,0,1,119.29,153c-17.23,2-28.53-9.78-25.79-27,.86-5.39,2.67-10.63,2.58-16.17,3.17-12.46,4.43-25.28,7-37.86.41-2.09.61-4.22.92-6.34C104,63.54,105.65,63.68,107,63.48Z"/><path class="cls-9" d="M315.13,197.06c-6.76,5.91-13.32,10.11-21.66,10.92a40.06,40.06,0,0,1-13.83-1c-10-2.54-15.22-9.32-15.59-19.85-.37-10.75,2.66-21.06,4.29-31.54,1.93-12.46,4.59-24.81,6.51-37.27.53-3.42,1.91-4,4.83-3.89,6.82.15,13.67.37,20.47-.06,4.58-.29,5.57,1,4.74,5.4-3.31,17.45-6.34,34.94-9.47,52.42a12.41,12.41,0,0,0-.37,2.46c.12,3.79-1.65,8.27,3.62,10.25,4.09,1.54,9.66-.48,12.77-4.54a18.35,18.35,0,0,0,3.37-8.19c3.1-17.82,6.22-35.64,9.15-53.49.48-2.94,1.15-4.4,4.56-4.28,7.65.26,15.31.15,23,0,2.58,0,3.31.48,2.8,3.36q-6.06,33.83-11.7,67.72a127.86,127.86,0,0,0-1.5,16.36c-.1,3.11-1.18,4-4.14,3.88a164.49,164.49,0,0,0-16.47,0c-4.23.28-5.77-1.19-5.13-5.28A21,21,0,0,0,315.13,197.06Z"/><path class="cls-9" d="M245.61,81.64c-1.79,10-3.37,19.43-5.25,28.85-.62,3.1-.07,4.23,3.26,4.07,5-.23,10,0,15-.09,2.47,0,3.57.29,2.89,3.34-1.2,5.33-1.84,10.78-2.63,16.2-.39,2.67-1.44,4-4.52,3.83-5.14-.3-10.32,0-15.47-.12-2.42-.05-3.48.73-3.91,3.29-1.76,10.64-3.91,21.21-5.69,31.84-2,12,2.63,15.12,14.7,11.7a34.06,34.06,0,0,0,3.81-1.66c1.3,6,2.56,11.86,3.82,17.71.42,1.91-1.23,2.26-2.31,2.72-11.9,5.14-24.24,7.09-37,3.86-9.23-2.34-14.05-9-14.41-18.55-.39-10.6,2.47-20.75,4.21-31,4.11-24.21,8.53-48.36,12.7-72.56.4-2.31.83-3.5,3.55-3.45C227.19,81.75,236,81.64,245.61,81.64Z"/><path class="cls-10" d="M187.41,451.54c-37.36,0-71.21-10.89-101.08-33.39-28.92-21.78-46.86-51.56-60.26-84.49a202.48,202.48,0,0,1-10.34-34.18c-.34-1.61-.46-3.26-.68-4.9-.37-1,.09-1.18.95-.95a256.29,256.29,0,0,0,39.25,64.52,306.93,306.93,0,0,0,71.55,62.33A358.11,358.11,0,0,0,183,449.38C184.52,450,186,450.82,187.41,451.54Z"/><path class="cls-9" d="M99.12,331.2c-9.49,0-9.51,0-8-9.58.65-4.09,1.41-8.16,2.06-12.25.32-2,.17-3.18-2.58-2.24-16.59,5.69-26-4.7-26.84-17.63-1.13-16.56,4.62-32.1,18-39.31,13-7,26.31-4.82,39.57-.55,2.32.75,1.85,2.5,1.58,4.08q-6.53,37-13.1,73.92c-.48,2.74-1.72,4-4.67,3.61A44.16,44.16,0,0,0,99.12,331.2Z"/><path class="cls-9" d="M154.4,333.58c17.17-.14,24.79,7.46,24.61,22.64-.1,8.6-1.74,16.85-6.87,24-6.44,9-15.39,12.52-26.08,10.74-3.93-.65-4.86.11-5.23,3.84-.47,4.76-1.87,9.43-2.51,14.18-.36,2.6-1.51,3.31-3.9,3.21-4.48-.18-10.29,1.52-13.1-.68-3.34-2.63.12-8.21.82-12.44,3.21-19.46,6.73-38.88,10-58.33.44-2.58,1.82-3.6,4.15-4.2A92,92,0,0,1,154.4,333.58Z"/><path class="cls-9" d="M163.29,301c-7.34,6.75-14.66,8.85-23.08,6.68-6.58-1.69-9.74-5.54-10.16-12.37-.52-8.26,2-16.11,3.19-24.15,1-7.05,2.61-14,3.72-21.07.31-1.92,1-2.54,2.82-2.52,5.63.06,11.26,0,17.19,0-2.19,12.44-4.31,24.36-6.39,36.28a28.43,28.43,0,0,0-.56,4.94c0,4,2.45,5.71,6.27,4.51,4.63-1.47,6-5.32,6.76-9.59,1.76-10.47,3.58-20.93,5.25-31.42.53-3.34,1.6-5.61,5.58-4.75a14.61,14.61,0,0,0,2,0c4.25.3,10-1.87,12.28,1,1.75,2.22-.76,7.82-1.42,11.91-2.34,14.42-6,28.64-6.7,43.29-.13,2.55-1.28,3-3.43,3a61.66,61.66,0,0,0-8.49,0C164.44,307.13,162.38,306.13,163.29,301Z"/><path class="cls-9" d="M219.52,308.69c-17.57.14-26-8.44-25.55-25,.57-22.32,16.09-38.51,36.43-38,8.76.23,14.58,3.78,16.65,10.17a19,19,0,0,1-6.73,20.89c-6.67,5.26-14.65,6.75-22.76,7.76-4.05.5-4.8,1.81-2.78,5.34a7.8,7.8,0,0,0,6.49,4,24.64,24.64,0,0,0,14.35-3.28c1.77-1,2.61-1.06,3.53,1.3,4,10.2,3.47,11.43-7,14.68A40.63,40.63,0,0,1,219.52,308.69Z"/><path class="cls-9" d="M251.05,385.15c-5,4.4-10.05,6.61-16,6.24-6.55-.41-11.4-3.48-13.82-9.7-4.68-12-.71-36.6,16.18-44.51,11.7-5.47,23.25-4,34.88-.14,2.84.95,1.73,3.29,1.43,5.07-2,11.61-4.12,23.2-6.09,34.82a48.39,48.39,0,0,0-.7,8.91c.06,3.14-1.25,4.1-4.19,3.88a45.57,45.57,0,0,0-7.48,0C252.38,390,250.55,389.21,251.05,385.15Z"/><path class="cls-9" d="M299.91,340c5.51-4.55,11.21-6.79,17.84-6.39,8.65.51,14,6.32,12.76,14.91-1.91,12.95-4.39,25.82-6.54,38.74-.32,1.9-1.23,2.55-3,2.47-1.16-.05-2.33,0-3.49,0-12.4,0-12.35,0-10.07-12,1.48-7.82,2.76-15.67,4.19-23.5.49-2.64.53-5.31-2.28-6.38s-5.29.14-7.08,2.39a12.47,12.47,0,0,0-2.3,6c-1.62,9.81-3.4,19.6-5,29.41-.46,2.74-1.26,4.85-4.69,4.14a12.26,12.26,0,0,0-1.49,0c-4.09-.33-9.65,1.82-11.84-1-1.69-2.16.7-7.51,1.32-11.43,2.09-13.09,5.66-25.95,6-39.31,0-.77.17-2,.67-2.25,2.92-1.62,6.18-.36,9.26-.79C297.6,334.43,299.94,335.4,299.91,340Z"/><path class="cls-9" d="M377,376.46a4.65,4.65,0,0,0,0,1c2.32,9,2.3,9.32-6.89,11.9-4.25,1.19-8.74,1.59-13.12,2.34-19.84-.87-24.13-14.44-21.35-29.46C339,343.88,352.07,333,369,333.59c6.3.24,12.13,2,14.52,8.49,2.47,6.75,1.06,13.16-4.06,18.36-6.21,6.32-14.53,7.5-22.74,8.84-3.92.63-4.64,2.1-2.3,5.27,3.25,4.41,7.93,3.56,12.35,2.8a15.67,15.67,0,0,0,6-2.42C375.13,373.31,376.07,374.5,377,376.46Z"/><path class="cls-9" d="M418,334.38c5.32,1.94,11.22,3,13.92,9-1.48,3.06-4.42,4.87-6.45,7.49-1.54,2-3.51,1.34-5.29.06a14.43,14.43,0,0,0-7.8-2.93c-1.71-.07-3.48.2-4.07,2.11s.92,3,2.36,3.87c3.08,1.86,7.06,2.12,9.37,5.33,6.39,3.86,9,9.45,7.52,16.8-1.72,8.6-7.74,12.55-15.69,14.47-8.19,2-16,.32-23.84-2-1.43-1.72-5.5-1.69-4.83-4.18,1-3.71,3.35-7.12,5.45-10.45.76-1.2,2.06.14,3.06.59,3,1.35,5.83,3.16,9.29,3,6.76-1,7-1.17,6.91-6-5.24-3.65-12.13-4.27-16.75-9.08-7.61-13.72.13-27.24,16.55-28.81A28.33,28.33,0,0,1,418,334.38Z"/><path class="cls-9" d="M212.59,375.87a14.85,14.85,0,0,1,.44,1.59c1.78,11.76,4.49,10.48-9.74,13.68a23.54,23.54,0,0,1-7.45.2c-8-.79-11.85-5-11.74-13.23.13-9,2.61-17.72,4.06-26.55,1.8-11,4-21.89,5.8-32.87.38-2.35,1.23-3.1,3.48-3a105.81,105.81,0,0,0,11,0c3.28-.24,4.08,1,3.52,4-2.21,11.92-4.33,23.85-6.45,35.78-.9,5.07-1.9,10.13-2.54,15.23-.82,6.46.42,7.43,6.82,5.9C210.69,376.36,211.61,376.12,212.59,375.87Z"/><path class="cls-9" d="M342,75.74c.06,3.67-2.06,6.34-4.53,8.52-8.35,7.38-17.55,13.63-26.84,19.75-4.22,2.78-4.59-2.22-6.81-3.44-1.95-1.08-2.42-2.65-.72-4.84,7.81-10.12,15.44-20.38,23.15-30.57a3.36,3.36,0,0,1,2.39-1.63C333.76,63,342,70.52,342,75.74Z"/><path class="cls-11" d="M244.18,223.27c.13,1.59-1.08,3.18-2.54,4.56-5.19,4.92-11.22,8.72-17.06,12.79-2.75,1.92-3.32-.82-4.74-1.77-1.72-1.15-1.7-2.31-.36-4,4.32-5.45,8.35-11.12,12.68-16.56,1.34-1.68,2.08-4.92,5.67-3C241,216.93,244.14,218.39,244.18,223.27Z"/><path class="cls-12" d="M16,293.63l-.95.95c-1.53-1.51-.83-3.39-.86-5.16A6.44,6.44,0,0,1,16,293.63Z"/><path class="cls-13" d="M420,359.28c-3.62-1.56-7.26-3.08-10.87-4.69-2-.88-3.39-2.45-2.93-4.64.5-2.38,2.41-3.27,4.85-3.43a13.33,13.33,0,0,1,9.6,3.4c2.06,1.71,3.19,1.49,4.84-.34,2-2.21,4.25-4.17,6.39-6.23l.09,1.22C428.37,349.77,423.22,353.74,420,359.28Z"/><path class="cls-14" d="M407.88,371.58c1.84,1,2.83,2.5,1.36,4.32-2.2,2.72-5,3.42-8.27,1.69C402.9,375.16,404.55,372.41,407.88,371.58Z"/><path class="cls-1" d="M139.4,172.87c-1.36,10.39-2.07,19.5-6.59,27.69a17.41,17.41,0,0,1-9.87,8.62,7.18,7.18,0,0,1-7.78-1.77c-2.24-2.17-2.11-4.73-1-7.35a35.69,35.69,0,0,1,5.86-9.19C125.38,184.34,131.74,178.89,139.4,172.87Z"/><path class="cls-1" d="M83,283.76a33.51,33.51,0,0,1,4.41-16.59,14.09,14.09,0,0,1,5.18-5.27c2.65-1.46,5.94-2.75,8.47-1.11,2,1.26.07,4.27-.24,6.41-1,6.54-2.28,13-3.51,19.52-1.1,5.81-3.73,8.36-8.29,7.82-5.25-.61-5.79-4.64-6-8.79C82.94,285.09,83,284.43,83,283.76Z"/><path class="cls-15" d="M161,357.65c-.53,5.44-1.14,10.83-4,15.74a10.21,10.21,0,0,1-6.5,5c-4.73,1.24-6.63-.65-5.8-5.38,1.25-7.17,2.57-14.34,3.61-21.54.46-3.17,2-4.55,5.08-4.63s5.55.78,6.68,3.94A15.66,15.66,0,0,1,161,357.65Z"/><path class="cls-16" d="M226.63,259.65c1.25.26,2.88.34,3.45,2a5.27,5.27,0,0,1-.85,5.19c-3.15,3.92-7.68,5-12.3,5.73-.83.14-1.63.05-1.81-1.1C214.48,267.53,222.06,259.55,226.63,259.65Z"/><path class="cls-1" d="M237.68,367.85a32.34,32.34,0,0,1,4.53-16.51,10.41,10.41,0,0,1,5.66-4.6c5.16-1.69,7.19,0,6.31,5.25-1,5.7-2,11.39-3,17.08-1.17,6.75-3.78,9.84-8,9.41C239.09,378.07,237.45,374.89,237.68,367.85Z"/><path class="cls-17" d="M354.29,358.67c1.11-4.91,2.75-8.72,6.55-11,2.31-1.4,5.12-2.48,7.11.36,1.89,2.68-.2,4.66-2.06,6.36C362.79,357.21,358.82,357.68,354.29,358.67Z"/></g></g></svg>